<svg width="100" height="100" viewBox="0 0 100 100" xmlns="http://www.w3.org/2000/svg">
  <!-- Stem -->
  <path d="M50 15 L50 25" stroke="#8d6e63" stroke-width="3" stroke-linecap="round" />
  
  <!-- Top row of grapes -->
  <circle cx="50" cy="30" r="10" fill="#6a1b9a" />
  <circle cx="50" cy="30" r="9" fill="#7b1fa2" />
  <ellipse cx="47" cy="27" rx="3" ry="4" fill="#9c27b0" opacity="0.6" />
  
  <!-- Second row -->
  <circle cx="40" cy="40" r="10" fill="#6a1b9a" />
  <circle cx="40" cy="40" r="9" fill="#7b1fa2" />
  <ellipse cx="37" cy="37" rx="3" ry="4" fill="#9c27b0" opacity="0.6" />
  
  <circle cx="60" cy="40" r="10" fill="#6a1b9a" />
  <circle cx="60" cy="40" r="9" fill="#7b1fa2" />
  <ellipse cx="57" cy="37" rx="3" ry="4" fill="#9c27b0" opacity="0.6" />
  
  <!-- Third row -->
  <circle cx="35" cy="52" r="10" fill="#6a1b9a" />
  <circle cx="35" cy="52" r="9" fill="#7b1fa2" />
  <ellipse cx="32" cy="49" rx="3" ry="4" fill="#9c27b0" opacity="0.6" />
  
  <circle cx="50" cy="50" r="10" fill="#6a1b9a" />
  <circle cx="50" cy="50" r="9" fill="#7b1fa2" />
  <ellipse cx="47" cy="47" rx="3" ry="4" fill="#9c27b0" opacity="0.6" />
  
  <circle cx="65" cy="52" r="10" fill="#6a1b9a" />
  <circle cx="65" cy="52" r="9" fill="#7b1fa2" />
  <ellipse cx="62" cy="49" rx="3" ry="4" fill="#9c27b0" opacity="0.6" />
  
  <!-- Fourth row -->
  <circle cx="40" cy="63" r="10" fill="#6a1b9a" />
  <circle cx="40" cy="63" r="9" fill="#7b1fa2" />
  <ellipse cx="37" cy="60" rx="3" ry="4" fill="#9c27b0" opacity="0.6" />
  
  <circle cx="60" cy="63" r="10" fill="#6a1b9a" />
  <circle cx="60" cy="63" r="9" fill="#7b1fa2" />
  <ellipse cx="57" cy="60" rx="3" ry="4" fill="#9c27b0" opacity="0.6" />
  
  <!-- Bottom grape -->
  <circle cx="50" cy="75" r="10" fill="#6a1b9a" />
  <circle cx="50" cy="75" r="9" fill="#7b1fa2" />
  <ellipse cx="47" cy="72" rx="3" ry="4" fill="#9c27b0" opacity="0.6" />
  
  <!-- Leaf -->
  <path d="M48 15 Q42 10 38 16 Q40 20 45 18 L48 15" fill="#66bb6a" />
  <path d="M48 15 L45 18" stroke="#4caf50" stroke-width="1" />
</svg>