<svg width="100" height="100" viewBox="0 0 100 100" xmlns="http://www.w3.org/2000/svg">
  <!-- Orange body -->
  <circle cx="50" cy="55" r="30" fill="#ef6c00" />
  <circle cx="50" cy="55" r="28" fill="#ff9800" />
  
  <!-- Texture dots -->
  <circle cx="40" cy="45" r="1.5" fill="#ffb74d" opacity="0.8" />
  <circle cx="45" cy="40" r="1.5" fill="#ffb74d" opacity="0.8" />
  <circle cx="55" cy="42" r="1.5" fill="#ffb74d" opacity="0.8" />
  <circle cx="60" cy="48" r="1.5" fill="#ffb74d" opacity="0.8" />
  <circle cx="35" cy="55" r="1.5" fill="#ffb74d" opacity="0.8" />
  <circle cx="42" cy="58" r="1.5" fill="#ffb74d" opacity="0.8" />
  <circle cx="50" cy="60" r="1.5" fill="#ffb74d" opacity="0.8" />
  <circle cx="58" cy="58" r="1.5" fill="#ffb74d" opacity="0.8" />
  <circle cx="65" cy="55" r="1.5" fill="#ffb74d" opacity="0.8" />
  <circle cx="40" cy="65" r="1.5" fill="#ffb74d" opacity="0.8" />
  <circle cx="48" cy="68" r="1.5" fill="#ffb74d" opacity="0.8" />
  <circle cx="55" cy="67" r="1.5" fill="#ffb74d" opacity="0.8" />
  <circle cx="60" cy="65" r="1.5" fill="#ffb74d" opacity="0.8" />
  
  <!-- Highlight -->
  <ellipse cx="38" cy="40" rx="10" ry="15" fill="#ffc947" opacity="0.4" transform="rotate(-20 38 40)" />
  
  <!-- Stem/navel -->
  <circle cx="50" cy="25" r="3" fill="#6d4c41" />
  <circle cx="50" cy="25" r="2" fill="#5d4037" />
  
  <!-- Leaf -->
  <path d="M50 25 Q45 18 40 22 Q44 26 48 24 L50 25" fill="#66bb6a" />
  <path d="M50 25 L48 24" stroke="#4caf50" stroke-width="1" />
  <path d="M48 23 Q45 20 46 23" stroke="#558b2f" stroke-width="0.5" fill="none" />
</svg>